<svg width="36" height="36" viewBox="0 0 36 36" fill="none" xmlns="http://www.w3.org/2000/svg">
<g id="Frame" clip-path="url(#clip0_55_438)">
<path id="Vector" d="M11.1496 25.8549L12.7165 23.0223C11.5513 22.1786 10.6406 21.1139 9.98438 19.8281C9.32812 18.5424 9 17.1831 9 15.75C9 14.1295 9.40848 12.6228 10.2254 11.2299C7.15848 12.7969 4.60714 15.1607 2.57143 18.3214C4.80804 21.7768 7.66741 24.288 11.1496 25.8549ZM18.9643 10.6072C18.9643 10.3393 18.8705 10.1116 18.683 9.92412C18.4955 9.73662 18.2679 9.64287 18 9.64287C16.3259 9.64287 14.8895 10.2422 13.6908 11.4409C12.4922 12.6395 11.8929 14.0759 11.8929 15.75C11.8929 16.0179 11.9866 16.2456 12.1741 16.4331C12.3616 16.6206 12.5893 16.7143 12.8571 16.7143C13.125 16.7143 13.3527 16.6206 13.5402 16.4331C13.7277 16.2456 13.8214 16.0179 13.8214 15.75C13.8214 14.5982 14.2299 13.6139 15.0469 12.7969C15.8638 11.9799 16.8482 11.5714 18 11.5714C18.2679 11.5714 18.4955 11.4777 18.683 11.2902C18.8705 11.1027 18.9643 10.875 18.9643 10.6072ZM26.2567 6.7701C26.2567 6.86385 26.25 6.92412 26.2366 6.95091C24.817 9.48216 22.7009 13.279 19.8884 18.3415C17.0759 23.404 14.9665 27.1942 13.5603 29.7121L12.5759 31.5C12.442 31.7143 12.2545 31.8214 12.0134 31.8214C11.8527 31.8214 10.9554 31.3527 9.32143 30.4152C9.10714 30.2813 9 30.0938 9 29.8527C9 29.692 9.29464 29.1094 9.88393 28.1049C7.96875 27.2344 6.20424 26.0759 4.5904 24.6295C2.97656 23.1831 1.58036 21.5424 0.401786 19.7076C0.133929 19.2924 0 18.8304 0 18.3214C0 17.8125 0.133929 17.3505 0.401786 16.9353C2.45089 13.788 4.99554 11.3036 8.03571 9.48216C11.0759 7.66073 14.3973 6.75001 18 6.75001C19.192 6.75001 20.3973 6.86385 21.6161 7.09153L22.7009 5.14287C22.8348 4.92858 23.0223 4.82144 23.2634 4.82144C23.3304 4.82144 23.4509 4.86162 23.625 4.94198C23.7991 5.02233 24.0067 5.12613 24.2478 5.25336C24.4888 5.38059 24.7098 5.50448 24.9107 5.62501C25.1116 5.74555 25.3225 5.86943 25.5435 5.99667C25.7645 6.1239 25.8951 6.20091 25.9353 6.22769C26.1496 6.36162 26.2567 6.54242 26.2567 6.7701ZM27 15.75C27 17.6116 26.471 19.3092 25.4129 20.8426C24.3549 22.3761 22.9554 23.4777 21.2143 24.1473L26.8393 14.0625C26.9464 14.6652 27 15.2277 27 15.75ZM36 18.3214C36 18.7902 35.8661 19.2522 35.5982 19.7076C35.0759 20.5647 34.346 21.5357 33.4085 22.6206C31.3996 24.9241 29.0725 26.7121 26.4275 27.9844C23.7824 29.2567 20.9732 29.8929 18 29.8929L19.4866 27.2411C22.3259 27 24.9542 26.0826 27.3717 24.4889C29.7891 22.8951 31.808 20.8393 33.4286 18.3214C31.8884 15.9241 30 13.9554 27.7634 12.4152L29.029 10.1652C30.3013 11.0223 31.5234 12.0469 32.6953 13.2389C33.8672 14.4308 34.8348 15.663 35.5982 16.9353C35.8661 17.3906 36 17.8527 36 18.3214Z" fill="#CCCCCC"/>
</g>
<defs>
<clipPath id="clip0_55_438">
<rect width="36" height="36" fill="white"/>
</clipPath>
</defs>
</svg>
