<svg width="36" height="36" viewBox="0 0 36 36" fill="none" xmlns="http://www.w3.org/2000/svg">
<g id="Frame" clip-path="url(#clip0_19_422)">
<path id="Vector" d="M33.4286 19.2857C31.3929 16.125 28.8415 13.7612 25.7746 12.1942C26.5915 13.5871 27 15.0938 27 16.7143C27 19.192 26.1194 21.3114 24.3583 23.0726C22.5971 24.8337 20.4777 25.7143 18 25.7143C15.5223 25.7143 13.4029 24.8337 11.6417 23.0726C9.88058 21.3114 9 19.192 9 16.7143C9 15.0938 9.40848 13.5871 10.2254 12.1942C7.15848 13.7612 4.60714 16.125 2.57143 19.2857C4.35268 22.0313 6.58594 24.2176 9.2712 25.8449C11.9565 27.4721 14.8661 28.2857 18 28.2857C21.1339 28.2857 24.0435 27.4721 26.7288 25.8449C29.4141 24.2176 31.6473 22.0313 33.4286 19.2857ZM18.9643 11.5714C18.9643 11.3036 18.8705 11.0759 18.683 10.8884C18.4955 10.7009 18.2679 10.6072 18 10.6072C16.3259 10.6072 14.8895 11.2065 13.6908 12.4051C12.4922 13.6038 11.8929 15.0402 11.8929 16.7143C11.8929 16.9822 11.9866 17.2098 12.1741 17.3973C12.3616 17.5848 12.5893 17.6786 12.8571 17.6786C13.125 17.6786 13.3527 17.5848 13.5402 17.3973C13.7277 17.2098 13.8214 16.9822 13.8214 16.7143C13.8214 15.5625 14.2299 14.5781 15.0469 13.7612C15.8638 12.9442 16.8482 12.5357 18 12.5357C18.2679 12.5357 18.4955 12.442 18.683 12.2545C18.8705 12.067 18.9643 11.8393 18.9643 11.5714ZM36 19.2857C36 19.7411 35.8661 20.2031 35.5982 20.6719C33.7232 23.7522 31.202 26.2199 28.0346 28.0748C24.8672 29.9297 21.5223 30.8572 18 30.8572C14.4777 30.8572 11.1328 29.9263 7.9654 28.0647C4.79799 26.2031 2.27679 23.7388 0.401786 20.6719C0.133929 20.2031 0 19.7411 0 19.2857C0 18.8304 0.133929 18.3683 0.401786 17.8996C2.27679 14.8326 4.79799 12.3683 7.9654 10.5067C11.1328 8.6451 14.4777 7.71429 18 7.71429C21.5223 7.71429 24.8672 8.6451 28.0346 10.5067C31.202 12.3683 33.7232 14.8326 35.5982 17.8996C35.8661 18.3683 36 18.8304 36 19.2857Z" fill="#CCCCCC"/>
</g>
<defs>
<clipPath id="clip0_19_422">
<rect width="36" height="36" fill="white"/>
</clipPath>
</defs>
</svg>
